<mxfile host="app.diagrams.net" modified="2021-10-20T07:59:02.588Z" agent="5.0 (X11)" etag="8N9QgRikCtnd50X5z6MP" version="15.5.6" type="github">
  <diagram id="EI1Qeismvc9MH9zjj8oX" name="Page-1">
    <mxGraphModel dx="1021" dy="519" grid="1" gridSize="10" guides="1" tooltips="1" connect="1" arrows="1" fold="1" page="1" pageScale="1" pageWidth="827" pageHeight="1169" math="0" shadow="0">
      <root>
        <mxCell id="0" />
        <mxCell id="1" parent="0" />
        <mxCell id="YCkyC3kc7AcQUCWKXx0I-2" style="edgeStyle=orthogonalEdgeStyle;rounded=0;orthogonalLoop=1;jettySize=auto;html=1;" edge="1" parent="1" source="YCkyC3kc7AcQUCWKXx0I-1">
          <mxGeometry relative="1" as="geometry">
            <mxPoint x="354" y="140" as="targetPoint" />
          </mxGeometry>
        </mxCell>
        <mxCell id="YCkyC3kc7AcQUCWKXx0I-1" value="Inicio" style="ellipse;whiteSpace=wrap;html=1;" vertex="1" parent="1">
          <mxGeometry x="294" y="20" width="120" height="80" as="geometry" />
        </mxCell>
        <mxCell id="YCkyC3kc7AcQUCWKXx0I-4" style="edgeStyle=orthogonalEdgeStyle;rounded=0;orthogonalLoop=1;jettySize=auto;html=1;" edge="1" parent="1" source="YCkyC3kc7AcQUCWKXx0I-3">
          <mxGeometry relative="1" as="geometry">
            <mxPoint x="357" y="290" as="targetPoint" />
          </mxGeometry>
        </mxCell>
        <mxCell id="YCkyC3kc7AcQUCWKXx0I-3" value="&lt;div&gt;suspensos = 0&lt;/div&gt;&lt;div&gt;aprobados = 0&lt;/div&gt;&lt;div&gt;excelentes = 0&lt;/div&gt;&lt;div&gt;i = 0&lt;br&gt;&lt;/div&gt;" style="rounded=0;whiteSpace=wrap;html=1;" vertex="1" parent="1">
          <mxGeometry x="300" y="140" width="114" height="100" as="geometry" />
        </mxCell>
        <mxCell id="YCkyC3kc7AcQUCWKXx0I-8" style="edgeStyle=orthogonalEdgeStyle;rounded=0;orthogonalLoop=1;jettySize=auto;html=1;entryX=0.5;entryY=0;entryDx=0;entryDy=0;" edge="1" parent="1" source="YCkyC3kc7AcQUCWKXx0I-5" target="YCkyC3kc7AcQUCWKXx0I-7">
          <mxGeometry relative="1" as="geometry" />
        </mxCell>
        <mxCell id="YCkyC3kc7AcQUCWKXx0I-5" value="&quot;Introduce una nota: &quot;" style="shape=display;whiteSpace=wrap;html=1;" vertex="1" parent="1">
          <mxGeometry x="292.5" y="420" width="123" height="70" as="geometry" />
        </mxCell>
        <mxCell id="YCkyC3kc7AcQUCWKXx0I-10" style="edgeStyle=orthogonalEdgeStyle;rounded=0;orthogonalLoop=1;jettySize=auto;html=1;" edge="1" parent="1" source="YCkyC3kc7AcQUCWKXx0I-6">
          <mxGeometry relative="1" as="geometry">
            <mxPoint x="354" y="740" as="targetPoint" />
          </mxGeometry>
        </mxCell>
        <mxCell id="YCkyC3kc7AcQUCWKXx0I-6" value="num" style="shape=parallelogram;perimeter=parallelogramPerimeter;whiteSpace=wrap;html=1;fixedSize=1;" vertex="1" parent="1">
          <mxGeometry x="294" y="640" width="120" height="60" as="geometry" />
        </mxCell>
        <mxCell id="YCkyC3kc7AcQUCWKXx0I-9" style="edgeStyle=orthogonalEdgeStyle;rounded=0;orthogonalLoop=1;jettySize=auto;html=1;entryX=0.5;entryY=0;entryDx=0;entryDy=0;" edge="1" parent="1" source="YCkyC3kc7AcQUCWKXx0I-7" target="YCkyC3kc7AcQUCWKXx0I-6">
          <mxGeometry relative="1" as="geometry" />
        </mxCell>
        <mxCell id="YCkyC3kc7AcQUCWKXx0I-7" value="num" style="rounded=0;whiteSpace=wrap;html=1;" vertex="1" parent="1">
          <mxGeometry x="284" y="520" width="140" height="70" as="geometry" />
        </mxCell>
        <mxCell id="YCkyC3kc7AcQUCWKXx0I-14" style="edgeStyle=orthogonalEdgeStyle;rounded=0;orthogonalLoop=1;jettySize=auto;html=1;" edge="1" parent="1" source="YCkyC3kc7AcQUCWKXx0I-11">
          <mxGeometry relative="1" as="geometry">
            <mxPoint x="354" y="860" as="targetPoint" />
          </mxGeometry>
        </mxCell>
        <mxCell id="YCkyC3kc7AcQUCWKXx0I-40" style="edgeStyle=orthogonalEdgeStyle;rounded=0;orthogonalLoop=1;jettySize=auto;html=1;entryX=1;entryY=0.5;entryDx=0;entryDy=0;" edge="1" parent="1" source="YCkyC3kc7AcQUCWKXx0I-11" target="YCkyC3kc7AcQUCWKXx0I-23">
          <mxGeometry relative="1" as="geometry" />
        </mxCell>
        <mxCell id="YCkyC3kc7AcQUCWKXx0I-11" value="num &amp;lt; 5" style="rhombus;whiteSpace=wrap;html=1;" vertex="1" parent="1">
          <mxGeometry x="314" y="740" width="80" height="80" as="geometry" />
        </mxCell>
        <mxCell id="YCkyC3kc7AcQUCWKXx0I-19" style="edgeStyle=orthogonalEdgeStyle;rounded=0;orthogonalLoop=1;jettySize=auto;html=1;" edge="1" parent="1" source="YCkyC3kc7AcQUCWKXx0I-15">
          <mxGeometry relative="1" as="geometry">
            <mxPoint x="354" y="990" as="targetPoint" />
          </mxGeometry>
        </mxCell>
        <mxCell id="YCkyC3kc7AcQUCWKXx0I-41" style="edgeStyle=orthogonalEdgeStyle;rounded=0;orthogonalLoop=1;jettySize=auto;html=1;entryX=1;entryY=0.5;entryDx=0;entryDy=0;" edge="1" parent="1" source="YCkyC3kc7AcQUCWKXx0I-15" target="YCkyC3kc7AcQUCWKXx0I-22">
          <mxGeometry relative="1" as="geometry" />
        </mxCell>
        <mxCell id="YCkyC3kc7AcQUCWKXx0I-15" value="num &amp;lt; 9" style="rhombus;whiteSpace=wrap;html=1;" vertex="1" parent="1">
          <mxGeometry x="314" y="860" width="80" height="80" as="geometry" />
        </mxCell>
        <mxCell id="YCkyC3kc7AcQUCWKXx0I-18" value="no" style="text;html=1;align=center;verticalAlign=middle;resizable=0;points=[];autosize=1;strokeColor=none;fillColor=none;" vertex="1" parent="1">
          <mxGeometry x="355" y="810" width="30" height="20" as="geometry" />
        </mxCell>
        <mxCell id="YCkyC3kc7AcQUCWKXx0I-20" value="no" style="text;html=1;align=center;verticalAlign=middle;resizable=0;points=[];autosize=1;strokeColor=none;fillColor=none;" vertex="1" parent="1">
          <mxGeometry x="365" y="940" width="30" height="20" as="geometry" />
        </mxCell>
        <mxCell id="YCkyC3kc7AcQUCWKXx0I-43" style="edgeStyle=orthogonalEdgeStyle;rounded=0;orthogonalLoop=1;jettySize=auto;html=1;entryX=0.5;entryY=1;entryDx=0;entryDy=0;" edge="1" parent="1" source="YCkyC3kc7AcQUCWKXx0I-21" target="YCkyC3kc7AcQUCWKXx0I-28">
          <mxGeometry relative="1" as="geometry">
            <mxPoint x="120" y="522.9411764705883" as="targetPoint" />
          </mxGeometry>
        </mxCell>
        <mxCell id="YCkyC3kc7AcQUCWKXx0I-21" value="excelentes = excelentes + 1" style="rounded=0;whiteSpace=wrap;html=1;" vertex="1" parent="1">
          <mxGeometry x="294" y="990" width="120" height="60" as="geometry" />
        </mxCell>
        <mxCell id="YCkyC3kc7AcQUCWKXx0I-46" style="edgeStyle=orthogonalEdgeStyle;rounded=0;orthogonalLoop=1;jettySize=auto;html=1;" edge="1" parent="1" source="YCkyC3kc7AcQUCWKXx0I-22">
          <mxGeometry relative="1" as="geometry">
            <mxPoint x="120" y="899.9999999999998" as="targetPoint" />
          </mxGeometry>
        </mxCell>
        <mxCell id="YCkyC3kc7AcQUCWKXx0I-22" value="aprobados = aprobados + 1" style="rounded=0;whiteSpace=wrap;html=1;" vertex="1" parent="1">
          <mxGeometry x="150" y="870" width="120" height="60" as="geometry" />
        </mxCell>
        <mxCell id="YCkyC3kc7AcQUCWKXx0I-47" style="edgeStyle=orthogonalEdgeStyle;rounded=0;orthogonalLoop=1;jettySize=auto;html=1;" edge="1" parent="1" source="YCkyC3kc7AcQUCWKXx0I-23">
          <mxGeometry relative="1" as="geometry">
            <mxPoint x="120" y="779.9999999999998" as="targetPoint" />
          </mxGeometry>
        </mxCell>
        <mxCell id="YCkyC3kc7AcQUCWKXx0I-23" value="suspensos = suspenso + 1" style="rounded=0;whiteSpace=wrap;html=1;" vertex="1" parent="1">
          <mxGeometry x="150" y="750" width="120" height="60" as="geometry" />
        </mxCell>
        <mxCell id="YCkyC3kc7AcQUCWKXx0I-44" style="edgeStyle=orthogonalEdgeStyle;rounded=0;orthogonalLoop=1;jettySize=auto;html=1;entryX=0;entryY=0.5;entryDx=0;entryDy=0;" edge="1" parent="1" source="YCkyC3kc7AcQUCWKXx0I-28" target="YCkyC3kc7AcQUCWKXx0I-30">
          <mxGeometry relative="1" as="geometry" />
        </mxCell>
        <mxCell id="YCkyC3kc7AcQUCWKXx0I-28" value="i = i + 1" style="rounded=0;whiteSpace=wrap;html=1;" vertex="1" parent="1">
          <mxGeometry x="60" y="300" width="120" height="60" as="geometry" />
        </mxCell>
        <mxCell id="YCkyC3kc7AcQUCWKXx0I-39" style="edgeStyle=orthogonalEdgeStyle;rounded=0;orthogonalLoop=1;jettySize=auto;html=1;" edge="1" parent="1" source="YCkyC3kc7AcQUCWKXx0I-30">
          <mxGeometry relative="1" as="geometry">
            <mxPoint x="357" y="420" as="targetPoint" />
          </mxGeometry>
        </mxCell>
        <mxCell id="YCkyC3kc7AcQUCWKXx0I-50" style="edgeStyle=orthogonalEdgeStyle;rounded=0;orthogonalLoop=1;jettySize=auto;html=1;" edge="1" parent="1" source="YCkyC3kc7AcQUCWKXx0I-30">
          <mxGeometry relative="1" as="geometry">
            <mxPoint x="510" y="330" as="targetPoint" />
          </mxGeometry>
        </mxCell>
        <mxCell id="YCkyC3kc7AcQUCWKXx0I-30" value="i &amp;lt; 6" style="rhombus;whiteSpace=wrap;html=1;" vertex="1" parent="1">
          <mxGeometry x="317" y="290" width="80" height="80" as="geometry" />
        </mxCell>
        <mxCell id="YCkyC3kc7AcQUCWKXx0I-34" value="si" style="text;html=1;align=center;verticalAlign=middle;resizable=0;points=[];autosize=1;strokeColor=none;fillColor=none;" vertex="1" parent="1">
          <mxGeometry x="360" y="380" width="20" height="20" as="geometry" />
        </mxCell>
        <mxCell id="YCkyC3kc7AcQUCWKXx0I-35" value="no" style="text;html=1;align=center;verticalAlign=middle;resizable=0;points=[];autosize=1;strokeColor=none;fillColor=none;" vertex="1" parent="1">
          <mxGeometry x="394" y="310" width="30" height="20" as="geometry" />
        </mxCell>
        <mxCell id="YCkyC3kc7AcQUCWKXx0I-37" style="edgeStyle=orthogonalEdgeStyle;rounded=0;orthogonalLoop=1;jettySize=auto;html=1;" edge="1" parent="1" source="YCkyC3kc7AcQUCWKXx0I-36">
          <mxGeometry relative="1" as="geometry">
            <mxPoint x="636.5" y="150" as="targetPoint" />
          </mxGeometry>
        </mxCell>
        <mxCell id="YCkyC3kc7AcQUCWKXx0I-36" value="&lt;div&gt;&quot;Las notas son: &quot;&lt;/div&gt;&lt;div&gt;suspensos + &quot; alumnos suspensos&quot;&lt;/div&gt;&lt;div&gt;aprobados + &quot; alumnos aprobados&quot;&lt;/div&gt;&lt;div&gt;excelentes + &quot;alumnos excelentes&quot;&lt;br&gt;&lt;/div&gt;" style="shape=display;whiteSpace=wrap;html=1;" vertex="1" parent="1">
          <mxGeometry x="510" y="270" width="253" height="120" as="geometry" />
        </mxCell>
        <mxCell id="YCkyC3kc7AcQUCWKXx0I-38" value="Fin" style="ellipse;whiteSpace=wrap;html=1;" vertex="1" parent="1">
          <mxGeometry x="576.5" y="70" width="120" height="80" as="geometry" />
        </mxCell>
        <mxCell id="YCkyC3kc7AcQUCWKXx0I-48" value="si" style="text;html=1;align=center;verticalAlign=middle;resizable=0;points=[];autosize=1;strokeColor=none;fillColor=none;" vertex="1" parent="1">
          <mxGeometry x="300" y="760" width="20" height="20" as="geometry" />
        </mxCell>
        <mxCell id="YCkyC3kc7AcQUCWKXx0I-49" value="si" style="text;html=1;align=center;verticalAlign=middle;resizable=0;points=[];autosize=1;strokeColor=none;fillColor=none;" vertex="1" parent="1">
          <mxGeometry x="300" y="880" width="20" height="20" as="geometry" />
        </mxCell>
      </root>
    </mxGraphModel>
  </diagram>
</mxfile>
